<svg xmlns="http://www.w3.org/2000/svg" xmlns:xlink="http://www.w3.org/1999/xlink" version="1.1" x="0px" y="0px" viewBox="0 0 1920 1080" enable-background="new 0 0 1920 1080" xml:space="preserve">
<g id="Background">
	<path opacity="0.11" fill="#2A94F4" d="M1152.35,1032.689c0,0,92.651-30.449,83.263-260.3   c-9.388-229.852-190.107-182.521-185.413-297.719s-5.75-662.049-433.549-406.226s36.967,591.052,167.195,530.226   S540.591,786.625,607.636,915.71S888.368,1119.158,1152.35,1032.689z"/>
	<ellipse opacity="0.11" fill="#2A94F4" cx="874.176" cy="1051.868" rx="380.214" ry="28.132"/>
	<g id="Backgriund">
		<path fill="#0E538C" d="M1112.066,966.167L1112.066,966.167V179.883c-0.006-36.582-29.661-66.236-66.243-66.243H718.792    c-36.582,0.006-66.236,29.661-66.243,66.243v797.235c-0.006,36.578,29.641,66.236,66.22,66.243c0.008,0,0.015,0,0.023,0h327.031    c36.582,0,66.242-29.649,66.254-66.231L1112.066,966.167z"/>
		<path fill="#0B4870" d="M822.344,152.26c0.006,3.49-2.818,6.325-6.308,6.331c-3.49,0.006-6.325-2.818-6.331-6.308    c-0.006-3.49,2.818-6.325,6.308-6.331c0.008,0,0.015,0,0.023,0C819.52,145.951,822.344,148.776,822.344,152.26z"/>
		<path fill="#0B4870" d="M839.546,144.435H957.45c0.812,0,1.471,0.658,1.471,1.471v12.708c0,0.812-0.659,1.471-1.471,1.471H839.546    c-0.812,0-1.471-0.658-1.471-1.471v-12.708C838.075,145.093,838.733,144.435,839.546,144.435z"/>
		<circle fill="#0B4870" cx="881.049" cy="1004.292" r="25.21"/>
		<rect x="664.476" y="190.868" fill="#F7F7F7" width="435.651" height="775.242"/>
	</g>
	<path opacity="0.71" fill="#FFBE55" d="M1074.459,594.744H903.764c-7.351,0-13.31-5.959-13.31-13.31V309.34   c0-7.351,5.959-13.31,13.31-13.31h170.695c7.351,0,13.31,5.959,13.31,13.31v272.094   C1087.769,588.785,1081.81,594.744,1074.459,594.744z"/>
	<path opacity="0.25" fill="#2A94F4" d="M1076.337,274.911H687.124c-6.314,0-11.432-5.118-11.432-11.432v-36.181   c0-6.314,5.118-11.432,11.432-11.432h389.213c6.314,0,11.432,5.118,11.432,11.432v36.181   C1087.769,269.792,1082.651,274.911,1076.337,274.911z"/>
	<path opacity="0.71" fill="#FFBE55" d="M859.696,930.274H689.001c-7.351,0-13.31-5.959-13.31-13.31V644.871   c0-7.351,5.959-13.31,13.31-13.31h170.695c7.351,0,13.31,5.959,13.31,13.31v272.094   C873.006,924.315,867.047,930.274,859.696,930.274z"/>
	<path opacity="0.13" fill="#2A94F4" d="M1074.459,930.274H903.764c-7.351,0-13.31-5.959-13.31-13.31V644.871   c0-7.351,5.959-13.31,13.31-13.31h170.695c7.351,0,13.31,5.959,13.31,13.31v272.094   C1087.769,924.315,1081.81,930.274,1074.459,930.274z"/>
	<path fill="#CCE9FF" d="M815.35,682.524H607.498c-12.551,0-22.725-10.174-22.725-22.725V321.776   c0-12.551,10.174-22.725,22.725-22.725H815.35c12.551,0,22.725,10.174,22.725,22.725v338.023   C838.075,672.35,827.901,682.524,815.35,682.524z"/>
</g>
<g id="Character">
	<g>
		<path fill="#FCD2B1" d="M600.522,1004.317l-2.531,15.661c-1.009,6.249,2.669,12.306,8.679,14.29l26.908,8.885h-62.813    l7.602-38.837H600.522z"/>
		<path fill="#0B4870" d="M572.499,1034.291l31.051-1.601c0,0,39.068,6.076,39.311,14.552H565.4L572.499,1034.291z"/>
		<g>
			<path fill="#FCD2B1" d="M767.273,1004.317l6.441,19.662c1.41,4.305,4.781,7.684,9.082,9.104l30.5,10.072h-62.813l-8.854-38.837     H767.273z"/>
			<path fill="#0B4870" d="M749.278,1034.291l33.988-1.601c0,0,39.068,6.076,39.311,14.552h-77.461L749.278,1034.291z"/>
		</g>
		<path fill="#FCD2B1" d="M611.076,671.592c-11.377-0.613-10.51,6.973-24.989-4.713c-14.479-11.686,0.771,16.761,0.771,16.761    s25.131,3.367,26.944-7.748C615.615,664.777,620.405,672.095,611.076,671.592z"/>
		<path fill="#0B4870" d="M608.987,641.797c0,0-15.292,10.175-19.748,49.2c-4.456,39.023,1.738,67.262-1.783,90.045l-0.002,0.01    c-3.524,22.784-10.386,229.898-10.386,229.898h33.374l55.628-368.883L608.987,641.797z"/>
		<path fill="none" stroke="#FFFFFF" stroke-width="0.5217" stroke-miterlimit="10" d="M599.45,1010.95"/>
		<path fill="none" stroke="#FFFFFF" stroke-width="0.5217" stroke-miterlimit="10" d="M643.588,711.012"/>
		<path fill="#0B4870" d="M681.543,637.636h-58.997c0,0-7.291,44.006,5.539,69.666c12.829,25.658,19.694,32.567,23.375,47.476    l0.001,0.005c3.681,14.912,91.598,256.167,91.598,256.167h28.449L681.543,637.636z"/>
		<path fill="#FFE3CA" d="M596.41,513.699c0,0-59.34,84.546-52.524,107.4c3.462,11.607,30.07,57.76,42.973,62.541l0.667-10.888    l-1.123-4.585l-14.184-57.894l35.417-60.542L596.41,513.699z"/>
		<path fill="#FFBE55" d="M672.852,512.495l-76.443,1.205l14.856,113.409v0.001c1.418,7.376-30.121,43.927-10.515,43.927    l90.106,4.856c3.335,0-2.472-36.528-2.472-39.862v-41.3C697.369,554.859,672.852,512.495,672.852,512.495z"/>
		<polygon fill="#FFBE55" points="572.755,550.152 595.65,570.22 608.672,547.818 596.41,513.699   "/>
		<path fill="#FCD2B1" d="M659.358,450.096l7.484,17.709c0,0,4.439,13.155,1.871,20.849c-2.962,8.875-16.305,8.821-16.305,8.821    l4.01,21.651h-33.872v-68.428L659.358,450.096z"/>
		<path fill="#0B4870" d="M657.422,457.383c6.088-4.11,7.277-12.555,2.554-18.181c-6.636-7.904-18.088-17.338-34.401-16.176    c-16.065,1.145-31.537,11.007-31.878,33.992c-0.228,15.383-8.13,24.233-14.876,45.303c-12.689,39.631,82.756,55.277,83.891,2.089    c0.539-25.245-16.375-29.728-14.554-42.182C651.588,460.964,654.731,459.199,657.422,457.383z"/>
		<path fill="#FFE3CA" d="M839.797,440.936c5.922-16.188,0.409-21.842-1.722-24.403c-0.434-0.522-13.383,22.509-14.627,21.06    c-2.507-2.922-4.421-6.305-5.16-5.364c-3.363,4.277-1.791,11.246,0.147,15.696c1.101,2.529-3.308,8.808-5.031,10.961    l-69.38,53.609h-70.191c-14.461,2.858-7.332,32.98,9.983,32.291c15.19-0.604,54.595-2.272,71.836-13.097    c17.241-10.826,73.55-76.51,73.55-76.51C836.801,449.405,839.315,442.251,839.797,440.936z"/>
		<path fill="#FFBE55" d="M710.179,512.495l1.244,30.462l-39.09,3.688c0,0-18.743-27.775-1.467-34.15    C678.495,509.68,710.179,512.495,710.179,512.495z"/>
	</g>
</g>
</svg>